# xmcd CD database file
#
# Track frame offsets:
#	150
#	6467
#	21762
#	44978
#	60492
#	76410
#	92149
#	105114
#	120920
#	147125
#	163561
#
# Disc length: 2435 seconds
#
# Revision: 1
# Processed by: cddbd v1.5.2PL0 Copyright (c) Steve Scherf et al.
# Submitted via: CDex 1.70beta2
#
DISCID=8309810b
DTITLE=Refree - Els Invertebrats
DYEAR=2007
DGENRE=Jazz
TTITLE0=Buenos días por la mañana
TTITLE1=Un oficio antiguo
TTITLE2=La mestressa
TTITLE3=El portal
TTITLE4=Envejece
TTITLE5=El sud
TTITLE6=El sant sopar
TTITLE7=El puerto de los Cristianos
TTITLE8=Marlina
TTITLE9=Que vivan los feos
TTITLE10=Nana al niño que nacido muerto
EXTD=YEAR: 2007
EXTT0=
EXTT1=
EXTT2=
EXTT3=
EXTT4=
EXTT5=
EXTT6=
EXTT7=
EXTT8=
EXTT9=
EXTT10=
PLAYORDER=
